<?xml version="1.0" encoding="UTF-8"?>
<!DOCTYPE svg PUBLIC "-//W3C//DTD SVG 1.1//EN" "http://www.w3.org/Graphics/SVG/1.1/DTD/svg11.dtd">
<!-- Creator: CorelDRAW 2020 (64-Bit) -->
<svg xmlns="http://www.w3.org/2000/svg" xml:space="preserve" width="100.458mm" height="95.4456mm" version="1.1" style="shape-rendering:geometricPrecision; text-rendering:geometricPrecision; image-rendering:optimizeQuality; fill-rule:evenodd; clip-rule:evenodd"
viewBox="0 0 6569.66 6241.86"
 xmlns:xlink="http://www.w3.org/1999/xlink"
 xmlns:xodm="http://www.corel.com/coreldraw/odm/2003">
 <defs>
  <style type="text/css">
   <![CDATA[
    .str0 {stroke:#FEFEFE;stroke-width:83.05;stroke-miterlimit:22.9256}
    .fil0 {fill:#FEFEFE}
   ]]>
  </style>
 </defs>
 <g id="Capa_x0020_1">
  <metadata id="CorelCorpID_0Corel-Layer"/>
  <path class="fil0 str0" d="M6020.18 1724.22c-509.09,-998.87 -1547.17,-1682.69 -2745.17,-1682.69 -1126.73,0 -2112.55,605.85 -2649.33,1508.84l-567.97 -164.39 435.4 1749.39 1266.81 -1256.75 -530.81 -153.37c445.94,-652.47 1195.92,-1080.69 2045.89,-1080.69 1033.65,0 1918.74,631.75 2289.73,1531.48l455.44 -451.83zm-5511.41 2751.29c501.16,1021.56 1551.58,1724.83 2766.24,1724.83 1128.57,0 2115.32,-607.13 2651.52,-1512.55l585.5 166.85 -435.4 -1749.39 -1266.81 1256.75 514.9 149.01c-445.6,654.89 -1197.86,1086.28 -2049.71,1086.28 -1049.62,0 -1946.73,-653.01 -2307.18,-1574.92l-459.06 453.14z"/>
 </g>
</svg>
